<svg xmlns="http://www.w3.org/2000/svg" version="1.1" xmlns:xlink="http://www.w3.org/1999/xlink" xmlns:svgjs="http://svgjs.dev/svgjs" width="1000" height="252" viewBox="0 0 1000 252"><g transform="matrix(1,0,0,1,-0.6060603756885712,-0.205351486967146)"><svg viewBox="0 0 396 100" data-background-color="#ffffff" preserveAspectRatio="xMidYMid meet" height="252" width="1000" xmlns="http://www.w3.org/2000/svg" xmlns:xlink="http://www.w3.org/1999/xlink"><g id="tight-bounds" transform="matrix(1,0,0,1,0.2400000912273299,0.08149060196905111)"><svg viewBox="0 0 395.52 99.83702071272647" height="99.83702071272647" width="395.52"><g><svg viewBox="0 0 505.0175699496927 127.47635920145191" height="99.83702071272647" width="395.52"><g transform="matrix(1,0,0,1,109.49756994969272,39.39204529945554)"><svg viewBox="0 0 395.52 48.692268602540835" height="48.692268602540835" width="395.52"><g id="textblocktransform"><svg viewBox="0 0 395.52 48.692268602540835" height="48.692268602540835" width="395.52" id="textblock"><g><svg viewBox="0 0 395.52 48.692268602540835" height="48.692268602540835" width="395.52"><g transform="matrix(1,0,0,1,0,0)"><svg width="395.52" viewBox="0.9000000357627869 -38.75 330.57000732421875 40.70000076293945" height="48.692268602540835" data-palette-color="#e8772e"><path d="M24.25-14.6Q14.4-13.4 10.3-12.5L10.3-12.5 7.6-1.8Q7.25-0.35 6.58 0.15 5.9 0.65 3.9 0.65L3.9 0.65Q2.35 0.65 1.63 0.13 0.9-0.4 0.9-1.65L0.9-1.65Q0.9-2.2 1.05-2.7L1.05-2.7 7.9-29.75Q8.45-31.95 9.08-32.68 9.7-33.4 11.35-33.4L11.35-33.4Q12.7-33.4 13.83-33.1 14.95-32.8 15-32.2L15-32.2Q15-32.1 14.35-29.5L14.35-29.5Q13.35-25.65 11.5-17.8L11.5-17.8Q18.9-19.3 25.55-19.85L25.55-19.85 27.85-29.15Q28.35-31.15 29.23-32.13 30.1-33.1 31.6-33.4L31.6-33.4Q33.45-33.05 34.02-32.83 34.6-32.6 34.8-32.15L34.8-32.15Q34.15-30.3 33.83-28.73 33.5-27.15 33.45-26.85L33.45-26.85Q32.8-23.35 31.9-19.7L31.9-19.7Q33.85-18.85 33.85-17.4L33.85-17.4Q33.85-15.95 30.75-14.95L30.75-14.95Q30.2-12.95 28.7-6.25L28.7-6.25Q28.35-4.4 27.7-1.65L27.7-1.65Q27 1.1 25.5 1.1L25.5 1.1Q20.9 1.1 20.9-1.05L20.9-1.05Q20.9-1.5 24.25-14.6L24.25-14.6ZM46 1.05Q41.6 1.05 39.15-1.95 36.7-4.95 36.7-9.6L36.7-9.6Q36.7-13.5 38.57-16.95 40.45-20.4 43.7-22.5 46.95-24.6 50.85-24.6L50.85-24.6Q54.7-24.6 57.17-22.08 59.65-19.55 59.65-14.65L59.65-14.65Q59.65-11.2 57.75-7.5 55.85-3.8 52.67-1.38 49.5 1.05 46 1.05L46 1.05ZM46.75-2.95Q48.35-2.95 49.97-4.95 51.6-6.95 52.65-10 53.7-13.05 53.7-15.95L53.7-15.95Q53.7-20.4 50-20.4L50-20.4Q47.95-20.4 46.25-18.45 44.55-16.5 43.55-13.63 42.55-10.75 42.55-8.25L42.55-8.25Q42.55-6.8 43.2-5.58 43.85-4.35 44.82-3.65 45.8-2.95 46.75-2.95L46.75-2.95ZM72.3-18.1L69.14-5.5Q69.14-4.35 69.75-3.68 70.34-3 71.45-3L71.45-3Q72.95-3 73.92-3.88 74.9-4.75 76-6.35L76-6.35Q76.8-7.5 77.3-8 77.8-8.5 78.45-8.5L78.45-8.5Q79.75-8.5 80.3-8.18 80.84-7.85 80.84-6.85L80.84-6.85Q80.84-6.4 80.75-5.78 80.65-5.15 80.5-4.85L80.5-4.85Q79.3-2.3 76.57-0.45 73.84 1.4 70.4 1.4L70.4 1.4Q66.95 1.4 65.2-0.28 63.45-1.95 63.45-5.05L63.45-5.05Q63.45-5.5 63.9-7.4 64.34-9.3 65.05-11.95L65.05-11.95 66.45-17.65 63.4-17.4Q62.8-17.4 62.5-17.85 62.2-18.3 62.2-18.95L62.2-18.95Q62.2-20.2 63.09-21.45L63.09-21.45Q63.2-21.6 64.09-21.75 65-21.9 66.3-22.05L66.3-22.05 67.64-22.2 69.34-29.5Q69.84-30.8 70.87-31.53 71.9-32.25 72.8-32.25L72.8-32.25Q73.8-32.25 74.5-31.65 75.2-31.05 75.25-30.25L75.25-30.25 73.45-22.75Q75.4-23 77.07-23.18 78.75-23.35 79.7-23.35L79.7-23.35Q81.59-23.35 81.59-21.15L81.59-21.15Q81.59-20.3 80.87-19.63 80.15-18.95 79.3-18.8L79.3-18.8 72.3-18.1ZM118.34-17.15Q121.69-16.6 122.82-14.83 123.94-13.05 123.94-10.65L123.94-10.65Q123.94-10.15 123.89-9.9L123.89-9.9Q122.94-3.8 118.79-1.23 114.64 1.35 108.99 1.35L108.99 1.35Q107.54 1.35 105.87 1.03 104.19 0.7 103.14 0.1L103.14 0.1Q102.39 0.65 100.34 0.65L100.34 0.65Q98.99 0.65 98.44-0.43 97.89-1.5 97.89-3.05L97.89-3.05Q97.89-3.6 98.04-4.1L98.04-4.1 103.64-26.5Q100.09-25.3 99.24-24L99.24-24Q97.69-25.65 97.69-27.05L97.69-27.05Q97.69-28.15 98.54-29.3L98.54-29.3Q100.54-30.6 105.04-31.75L105.04-31.75Q105.44-32.8 106.07-33.2 106.69-33.6 107.94-33.6L107.94-33.6Q108.99-33.6 109.92-33.4 110.84-33.2 111.24-32.8L111.24-32.8Q113.64-33.1 116.09-33.1L116.09-33.1Q121.19-33.1 123.59-31.08 125.99-29.05 125.99-25.45L125.99-25.45Q125.99-22.4 123.84-20.23 121.69-18.05 118.34-17.15L118.34-17.15ZM108.19-18.45Q119.14-19.35 119.14-24.85L119.14-24.85Q119.14-26.4 118.19-27.28 117.24-28.15 114.94-28.15L114.94-28.15Q112.89-28.15 110.39-27.9L110.39-27.9 108.19-18.45ZM108.34-3.5Q110.59-3.5 112.72-4.33 114.84-5.15 116.19-6.68 117.54-8.2 117.54-10.25L117.54-10.25Q117.54-11.95 116.37-13.18 115.19-14.4 113.09-14.4L113.09-14.4Q109.14-14.4 107.39-14.1L107.39-14.1Q106.59-11.4 104.74-4.1L104.74-4.1Q106.34-3.5 108.34-3.5L108.34-3.5ZM137.29 1.05Q132.39 1.05 130.14-0.9 127.89-2.85 127.89-6.1L127.89-6.1Q127.89-10.85 130.26-14.9 132.64-18.95 136.61-21.33 140.59-23.7 145.19-23.7L145.19-23.7Q147.99-23.7 149.89-22.13 151.79-20.55 151.79-17.5L151.79-17.5Q151.79-15.75 150.66-14.63 149.54-13.5 147.44-12.63 145.34-11.75 140.64-10.15L140.64-10.15Q136.39-8.75 133.74-7.8L133.74-7.8Q133.54-7.05 133.54-6.25L133.54-6.25Q133.54-4.85 134.71-4.1 135.89-3.35 138.04-3.35L138.04-3.35Q139.39-3.35 141.14-3.9 142.89-4.45 143.34-5.3L143.34-5.3Q145.04-8.4 146.44-8.4L146.44-8.4Q148.49-8.4 149.21-7.63 149.94-6.85 149.99-5.9L149.99-5.9Q149.39-4.3 147.64-2.68 145.89-1.05 143.19 0 140.49 1.05 137.29 1.05L137.29 1.05ZM135.14-12.4Q140.09-14 143.29-15.38 146.49-16.75 146.49-18.1L146.49-18.1Q146.49-18.7 145.84-19.07 145.19-19.45 144.44-19.45L144.44-19.45Q142.94-19.45 141.01-18.3 139.09-17.15 137.44-15.5 135.79-13.85 135.14-12.4L135.14-12.4ZM172.99-2.6Q173.09-1.3 173.34-0.25L173.34-0.25Q173.24 0.05 172.46 0.35 171.69 0.65 171.14 0.65L171.14 0.65Q169.34 0.65 168.56 0.13 167.79-0.4 167.79-1.45L167.79-1.45Q167.79-2.45 167.99-3.45L167.99-3.45Q166.89-1.95 164.76-0.98 162.64 0 161.34 0L161.34 0Q157.99 0 155.76-1.95 153.54-3.9 153.54-8.2L153.54-8.2Q153.54-12.25 155.46-15.83 157.39-19.4 160.79-21.58 164.19-23.75 168.34-23.75L168.34-23.75Q169.14-23.75 170.44-23.33 171.74-22.9 173.06-21.88 174.39-20.85 175.29-19.25L175.29-19.25Q175.69-19.25 176.24-18.85 176.79-18.45 176.79-18.05L176.79-18.05Q176.79-17.6 176.64-17.15L176.64-17.15 172.99-2.6ZM170.74-16.6Q170.44-17.7 169.56-18.45 168.69-19.2 167.99-19.2L167.99-19.2Q165.69-19.2 163.66-17.57 161.64-15.95 160.39-13.55 159.14-11.15 159.14-9L159.14-9Q159.14-6.9 159.64-5.55 160.14-4.2 161.59-4.2L161.59-4.2Q162.84-4.2 164.46-4.95 166.09-5.7 167.36-6.98 168.64-8.25 169.04-9.65L169.04-9.65 170.74-16.6ZM182.13-22.85Q181.98-23 181.98-23.2L181.98-23.2Q181.98-23.7 183.08-24.03 184.18-24.35 186.13-24.35L186.13-24.35Q187.93-24.35 188.78-23.43 189.63-22.5 189.78-21.2L189.78-21.2 188.88-17.95Q189.93-19.4 191.83-20.73 193.73-22.05 195.68-22.85 197.63-23.65 198.88-23.65L198.88-23.65Q201.53-23.65 202.73-22.68 203.93-21.7 203.93-19.6L203.93-19.6Q200.98-11.9 200.03-3L200.03-3 200.73-0.55Q200.13 0.6 199.06 1.28 197.98 1.95 195.93 1.95L195.93 1.95Q194.73 1.95 194.18 1.15 193.63 0.35 193.63-0.85L193.63-0.85Q193.63-4.2 194.61-8.22 195.58-12.25 196.88-16.45L196.88-16.45Q197.38-18.05 197.38-18.1L197.38-18.1Q197.38-18.8 196.58-18.8L196.58-18.8Q195.48-18.8 193.26-17.25 191.03-15.7 188.68-12.03 186.33-8.35 184.88-2.4L184.88-2.4Q184.78-2.1 184.63-1.3 184.48-0.5 183.83-0.18 183.18 0.15 181.73 0.15L181.73 0.15Q180.08 0.15 179.31-0.2 178.53-0.55 178.53-1.7L178.53-1.7Q178.68-2.4 178.98-3.4L178.98-3.4Q181.88-15.05 183.43-21.35L183.43-21.35 182.13-22.85ZM222.43-19.35Q221.83-19.65 220.93-19.65L220.93-19.65Q218.68-19.65 216.43-18.75 214.18-17.85 214.18-16.45L214.18-16.45Q214.18-15.45 215.08-14.85 215.98-14.25 217.93-13.5L217.93-13.5Q220.03-12.65 221.33-11.9 222.63-11.15 223.61-9.73 224.58-8.3 224.58-6.1L224.58-6.1Q224.58-2.5 221.61-0.58 218.63 1.35 213.63 1.35L213.63 1.35Q211.18 1.35 209.08 0.6 206.98-0.15 205.75-1.33 204.53-2.5 204.43-3.65L204.43-3.65Q204.43-4.85 205.48-5.63 206.53-6.4 208.43-6.65L208.43-6.65Q208.48-5.65 209.48-4.78 210.48-3.9 211.86-3.38 213.23-2.85 214.23-2.85L214.23-2.85Q215.93-2.85 217.33-3.78 218.73-4.7 218.73-5.95L218.73-5.95Q218.73-8.25 214.28-9.6L214.28-9.6Q211.43-10.45 209.91-12.3 208.38-14.15 208.38-16.2L208.38-16.2Q208.38-20.25 212.06-22.03 215.73-23.8 221.43-23.8L221.43-23.8Q224.63-23.8 226.38-23.05 228.13-22.3 228.13-20.45L228.13-20.45Q228.13-19.2 227.21-18.25 226.28-17.3 224.58-17.3L224.58-17.3Q223.08-17.3 222.66-17.53 222.23-17.75 222.18-18.3L222.18-18.3Q222.18-18.8 222.43-19.35L222.43-19.35ZM259.82-15.05Q258.28-10.1 256.23-6.5 254.18-2.9 251.98-1 249.78 0.9 247.78 0.9L247.78 0.9Q243.18 0.9 243.18-8.55L243.18-8.55Q243.18-14.35 244.58-20.08 245.98-25.8 247.68-29.9L247.68-29.9Q248.18-31.2 248.98-31.98 249.78-32.75 251.23-32.75L251.23-32.75Q252.58-32.75 253.38-32.08 254.18-31.4 254.18-30.05L254.18-30.05 254.13-29.45Q254.13-29.35 253.53-27.8L253.53-27.8Q252.03-23.75 250.85-20.05 249.68-16.35 249.38-13L249.38-13Q249.23-11.3 249.23-9.65L249.23-9.65Q249.23-8 249.58-6.98 249.93-5.95 250.58-5.95L250.58-5.95Q252.03-5.95 254.1-10.13 256.18-14.3 258.07-20.13 259.98-25.95 260.88-30.35L260.88-30.35Q261.07-31.3 262.03-31.95 262.98-32.6 263.68-32.6L263.68-32.6Q264.93-32.6 265.5-31.98 266.07-31.35 266.07-30.05L266.07-30.05 266.03-29.35Q266.03-29.15 265.93-28.8 265.82-28.45 265.73-27.9L265.73-27.9Q263.32-16.5 262.82-10.9L262.82-10.9Q262.78-10.5 262.78-9.7L262.78-9.7Q262.78-8 263.25-6.98 263.73-5.95 264.48-5.95L264.48-5.95Q266.93-5.95 269.43-13.58 271.93-21.2 273.88-30.5L273.88-30.5Q274.07-31.4 274.75-31.83 275.43-32.25 276.38-32.25L276.38-32.25Q277.57-32.25 278.82-31.75 280.08-31.25 280.08-30.65L280.08-30.65 279.28-27.15Q277.43-18.95 275.55-13.15 273.68-7.35 270.65-3.23 267.63 0.9 263.32 0.9L263.32 0.9Q259.13 0.9 259.13-6.8L259.13-6.8Q259.13-10.35 260.03-15.05L260.03-15.05 259.82-15.05ZM289.57 1.05Q284.67 1.05 282.42-0.9 280.17-2.85 280.17-6.1L280.17-6.1Q280.17-10.85 282.55-14.9 284.92-18.95 288.9-21.33 292.87-23.7 297.47-23.7L297.47-23.7Q300.27-23.7 302.17-22.13 304.07-20.55 304.07-17.5L304.07-17.5Q304.07-15.75 302.95-14.63 301.82-13.5 299.72-12.63 297.62-11.75 292.92-10.15L292.92-10.15Q288.67-8.75 286.02-7.8L286.02-7.8Q285.82-7.05 285.82-6.25L285.82-6.25Q285.82-4.85 287-4.1 288.17-3.35 290.32-3.35L290.32-3.35Q291.67-3.35 293.42-3.9 295.17-4.45 295.62-5.3L295.62-5.3Q297.32-8.4 298.72-8.4L298.72-8.4Q300.77-8.4 301.5-7.63 302.22-6.85 302.27-5.9L302.27-5.9Q301.67-4.3 299.92-2.68 298.17-1.05 295.47 0 292.77 1.05 289.57 1.05L289.57 1.05ZM287.42-12.4Q292.37-14 295.57-15.38 298.77-16.75 298.77-18.1L298.77-18.1Q298.77-18.7 298.12-19.07 297.47-19.45 296.72-19.45L296.72-19.45Q295.22-19.45 293.3-18.3 291.37-17.15 289.72-15.5 288.07-13.85 287.42-12.4L287.42-12.4ZM311.77-2.3Q311.47-1.6 311.32-1.05L311.32-1.05Q310.87 0.1 310.52 0.63 310.17 1.15 309.42 1.15L309.42 1.15 308.02 1.2Q306.77 1.2 306.02 0.68 305.27 0.15 305.17-1.45L305.17-1.45Q305.22-1.5 305.67-2.58 306.12-3.65 306.57-5.5L306.57-5.5Q307.17-7.95 307.77-10.35 308.37-12.75 308.92-15L308.92-15Q309.67-17.95 311.12-23.83 312.57-29.7 313.37-33.15L313.37-33.15Q313.32-33.9 313.27-35.23 313.22-36.55 313.22-37.3L313.22-37.3Q313.37-37.95 314.35-38.35 315.32-38.75 316.12-38.75L316.12-38.75Q317.37-38.75 318.72-37.9 320.07-37.05 320.12-35.85L320.12-35.85 316.37-21.05Q317.72-22.6 319.65-23.23 321.57-23.85 323.22-23.85L323.22-23.85Q325.57-23.85 327.44-22.5 329.32-21.15 330.4-18.93 331.47-16.7 331.47-14.25L331.47-14.25Q331.47-10.65 329.77-7.18 328.07-3.7 324.82-1.48 321.57 0.75 317.22 0.75L317.22 0.75Q315.97 0.75 314.15-0.15 312.32-1.05 311.77-2.3L311.77-2.3ZM312.97-6.45Q313.62-5.3 314.92-4.4 316.22-3.5 317.27-3.5L317.27-3.5Q319.62-3.5 321.57-5.58 323.52-7.65 324.67-10.53 325.82-13.4 325.82-15.7L325.82-15.7Q325.82-17.3 324.97-18.35 324.12-19.4 322.47-19.4L322.47-19.4Q321.02-19.4 319.37-18.75 317.72-18.1 316.44-16.88 315.17-15.65 314.72-14.05L314.72-14.05 312.97-6.45Z" opacity="1" transform="matrix(1,0,0,1,0,0)" fill="#e8772e" class="wordmark-text-0" data-fill-palette-color="primary" id="text-0"></path></svg></g></svg></g></svg></g></svg></g><g><svg viewBox="0 0 98.00249394707929 127.47635920145191" height="127.47635920145191" width="98.00249394707929"><g><svg xmlns="http://www.w3.org/2000/svg" xmlns:xlink="http://www.w3.org/1999/xlink" version="1.1" x="0" y="0" viewBox="22.809371948242188 13.27847671508789 55.74226379394531 72.50653076171875" enable-background="new 0 0 100 100" xml:space="preserve" height="127.47635920145191" width="98.00249394707929" class="icon-icon-0" data-fill-palette-color="accent" id="icon-0"><path fill="#e8772e" d="M75.173 82.358c0 1.894-1.534 3.427-3.428 3.427H26.547c-1.893 0-3.428-1.533-3.428-3.427l0 0c0-1.895 6.932-3.429 8.826-3.429h35.576C69.415 78.93 75.173 80.464 75.173 82.358L75.173 82.358z" data-fill-palette-color="accent"></path><path fill="#e8772e" d="M41.322 47.246" data-fill-palette-color="accent"></path><path fill="#e8772e" d="M42.378 34.748" data-fill-palette-color="accent"></path><path fill="#e8772e" d="M71.914 44.105c1.76-5.628 8.091-10.904 6.332-15.652-0.397-1.07-0.518-1.664-0.55-1.896 0.013 0.596-0.257 3.389-4.662 6.116-1.579 0.978-3.369 2.095-5.179 3.373-0.158 0.096-0.31 0.2-0.446 0.316-0.617 0.531-1.796 0.513-1.543-0.428 0.012-0.037 0.021-0.076 0.031-0.114 0.203-0.725 0.378-1.428 0.519-2.094 0.004-0.008 0.007-0.026 0.007-0.026 0.812-3.777 0.69-6.257 0.126-3.917-0.481 2-2.286 2.204-4.522 2.992 0.546-3.497-0.062-7.249-0.542-10.071-0.564-3.308 0.688-4.623 0.971-4.857-0.113 0.076-0.443 0.272-1.154 0.547-3.04 1.173-2.887 6.473-4.853 9.716-1.461 2.414-2.423 2.466-5.168 3.539 1.05-1.555 2.129-3.565 2.356-6.989 0.508-7.576-1.269-14.208-1.142-10.148 0.127 4.059-5.116 3.86-8.633 9.287-0.695 1.073-1.233 2.018-1.649 2.875l-0.003-0.002c0 0-0.067 0.133-0.168 0.361-0.616 1.346-0.898 2.459-0.928 3.448-0.048 0.711 0.018 1.416 0.304 2.015 0.022 0.045 0.032 0.091 0.052 0.137 0.04 0.107 0.078 0.214 0.124 0.321 0.741 2.015 0.027 3.828-0.652 3.858-0.728 0.032-1.96-0.886-2.082-2.213-0.06-1.382 0.046-2.828 0.141-4.239 0.001-0.011 0.002-0.022 0.002-0.022h-0.001c0.208-3.111 0.342-6.039-1.546-7.68-0.74-0.643-1.052-1.022-1.155-1.165 0.237 0.408 1.177 2.542-0.946 6.292-2.909 5.133-7.292 13.013-4.499 20.041-1.415-1.018-2.83-1.902-4.064-2.666-3.2-1.982-3.376-4.013-3.366-4.424-0.019 0.153-0.099 0.575-0.396 1.377-1.27 3.428 3.302 7.237 4.571 11.299 1.269 4.063-0.381 4.19-2.159 11.173-1.625 6.385 7.238 14.144 8.771 15.428v2.348l9.014-0.863 0.076-1.097 11.773 0.686 1.215 0.411 0.121-0.333 0.909 0.052 0.076-0.989 4.839 0.193c0.129 0.512 0.202 0.796 0.202 0.796s0.336-0.271 0.892-0.752c3.175-2.764 13.67-12.647 11.575-20.879C72.442 49.908 70.155 49.733 71.914 44.105zM62.145 73.406c-3.095 1.795-1.463 7.328-14.978 4.719-0.003-0.001-0.775 0.13-0.778 0.129-1.042 0.251-1.596 0.925-5.532-0.173-3.936-1.095-2.793-8.971-2.115-10.705 0.677-1.735 3.02-2.539 3.018-4.105-0.001-1.566-1.114-7.706-0.902-7.198 0.211 0.507 1.617 3.466 2.472 2.724 0.854-0.742 1.683-1.881 0.907-3.2-0.111-0.15-0.217-0.297-0.332-0.45-2.032-2.71-1.185-4.062-1.016-5.924 0.17-1.863 1.27-2.793 1.185-2.37-0.085 0.423 0.423 1.27 2.793 3.639 0.948 0.948 1.187 2.279 1.138 3.537 0.553-0.873 0.842-1.811 0.927-3.442 0.219-4.251-2.744-9.409-0.364-12.183 0.557-0.649 0.779-1.018 0.85-1.154-0.153 0.383-0.693 2.348 1.62 5.316 3.244 4.165 8.193 10.623 6.324 17.215-0.177 0.875-0.327 2.297 0.41 2.838 1.039 0.76 1.705 0.823 2.592 0 0.891-0.825 1.653-2.671 1.145-4.986-0.508-2.315 0.89 1.177 1.715 3.716C64.047 63.884 65.316 71.565 62.145 73.406z" data-fill-palette-color="accent"></path></svg></g></svg></g></svg></g><defs></defs></svg><rect width="395.52" height="99.83702071272647" fill="none" stroke="none" visibility="hidden"></rect></g></svg></g></svg>